<?xml version="1.0" standalone="no"?>
<!DOCTYPE svg PUBLIC "-//W3C//DTD SVG 20010904//EN"
 "http://www.w3.org/TR/2001/REC-SVG-20010904/DTD/svg10.dtd">
<svg version="1.0" xmlns="http://www.w3.org/2000/svg"
 width="255.000000pt" height="255.000000pt" viewBox="0 0 255.000000 255.000000"
 preserveAspectRatio="xMidYMid meet">
<metadata>
Created by potrace 1.11, written by Peter Selinger 2001-2013
</metadata>
<g transform="translate(0.000000,255.000000) scale(0.100000,-0.100000)"
fill="#000000" stroke="none">
<path d="M633 2015 c19 -14 13 -26 -9 -18 -10 4 -12 0 -8 -11 4 -11 2 -16 -7
-14 -15 3 -15 -5 -3 -36 6 -15 4 -17 -6 -11 -8 5 -11 4 -6 -3 4 -6 13 -9 21
-5 10 3 15 -1 15 -12 0 -9 -4 -13 -10 -10 -5 3 -10 2 -10 -4 0 -5 8 -10 18
-10 45 -2 58 -5 73 -18 9 -7 23 -13 30 -11 8 2 13 -2 12 -9 -2 -9 4 -10 19 -4
18 6 27 2 47 -23 15 -16 25 -36 23 -43 -2 -7 3 -13 10 -13 9 0 9 -3 -2 -10
-12 -8 -12 -10 -1 -10 11 0 11 -3 0 -17 -8 -10 -9 -14 -2 -10 6 4 15 3 18 -3
4 -6 1 -9 -6 -8 -7 2 -13 -2 -14 -9 0 -6 -4 -15 -9 -20 -5 -5 -6 -2 -2 7 5 9
2 8 -7 -2 -8 -10 -16 -16 -18 -13 -3 2 -6 -6 -6 -18 -1 -12 -3 -29 -5 -37 -5
-22 -45 -60 -54 -52 -5 4 -3 0 4 -9 10 -13 9 -19 -2 -28 -11 -9 -16 -9 -21 0
-6 8 -10 7 -16 -2 -7 -11 -9 -9 -9 6 0 15 -3 17 -9 7 -7 -11 -9 -11 -13 0 -4
9 -20 13 -48 11 -33 -2 -41 1 -36 12 3 8 1 15 -4 15 -6 0 -10 -5 -10 -12 0 -9
-3 -9 -11 -1 -6 6 -18 9 -26 6 -8 -3 -19 0 -25 8 -8 11 -9 10 -4 -3 3 -10 1
-20 -4 -23 -6 -4 -10 -1 -10 4 0 6 -7 11 -15 11 -8 0 -15 -6 -15 -12 0 -9 -3
-9 -9 1 -8 13 -12 13 -27 0 -9 -8 -19 -13 -21 -11 -10 7 -53 0 -48 -8 4 -6 -1
-7 -11 -3 -10 4 -15 2 -11 -4 3 -5 0 -10 -8 -10 -8 0 -12 4 -9 8 2 4 0 11 -6
14 -6 4 -10 3 -9 -2 3 -19 -2 -33 -12 -33 -5 0 -7 5 -3 12 5 7 3 8 -5 4 -7 -5
-10 -14 -7 -22 3 -8 0 -11 -10 -7 -8 3 -22 -3 -30 -13 -9 -11 -13 -14 -10 -8
3 6 -1 11 -8 11 -8 0 -12 -7 -8 -15 3 -10 1 -13 -6 -8 -7 4 -12 1 -12 -8 0 -8
-5 -18 -12 -22 -7 -4 -8 -3 -4 4 4 8 2 10 -8 6 -8 -3 -13 -14 -11 -25 3 -16 1
-17 -15 -9 -16 8 -18 8 -14 -5 4 -8 -1 -17 -10 -21 -9 -3 -13 -11 -9 -17 4 -6
0 -8 -9 -4 -12 4 -14 1 -10 -15 4 -16 2 -20 -10 -15 -12 4 -14 1 -11 -14 3
-10 1 -19 -5 -19 -6 0 -9 -9 -7 -21 4 -18 2 -19 -13 -8 -9 7 -14 9 -10 5 9
-11 -11 -38 -22 -31 -5 3 -8 -81 -7 -187 2 -140 5 -192 14 -191 6 1 17 -5 25
-14 11 -14 11 -16 -2 -8 -13 8 -13 7 0 -11 8 -10 20 -22 25 -26 6 -5 4 -8 -5
-8 -13 0 -13 -2 0 -9 8 -6 19 -7 25 -5 5 3 1 -2 -10 -11 -12 -11 -14 -16 -5
-13 16 5 46 -23 55 -53 4 -11 11 -19 16 -19 6 0 7 5 3 12 -4 7 -3 8 5 4 8 -5
9 -12 3 -19 -7 -8 1 -22 24 -43 20 -18 36 -26 39 -20 3 7 7 7 11 -1 3 -7 10
-13 15 -13 6 0 7 5 3 12 -4 7 -3 8 5 4 6 -4 9 -11 6 -15 -6 -11 44 -33 57 -25
6 4 8 -1 4 -14 -4 -11 -2 -23 3 -27 6 -3 8 0 5 8 -7 19 8 28 26 16 10 -6 11
-9 3 -9 -7 0 -13 -4 -13 -10 0 -6 68 -9 178 -8 97 0 171 3 165 5 -16 6 -17 33
-2 33 5 0 7 -4 4 -10 -3 -5 -2 -10 3 -10 6 0 13 8 16 17 6 15 8 15 16 3 8 -13
10 -12 10 2 0 9 5 20 12 24 7 4 8 3 4 -4 -4 -7 -1 -12 9 -12 9 0 13 5 10 10
-6 10 5 13 35 11 9 0 10 2 3 5 -7 3 -9 12 -6 20 5 13 7 13 14 2 7 -10 9 -11 9
0 0 7 5 10 10 7 6 -3 10 -1 10 5 0 6 5 8 13 4 7 -5 7 -2 -2 10 -8 9 -9 16 -3
14 6 -2 18 6 27 17 9 11 14 13 10 5 -4 -8 1 -6 9 5 9 11 14 25 12 32 -3 7 3
10 15 8 17 -3 19 -2 9 10 -9 11 -6 17 14 30 25 17 38 44 14 29 -7 -5 -8 -3 -3
5 4 7 16 11 26 8 10 -3 22 0 26 5 3 6 1 8 -5 4 -6 -3 -13 -2 -17 4 -3 5 1 10
9 10 9 0 14 8 13 20 -1 11 -5 20 -9 20 -5 0 -3 8 3 19 14 21 49 17 49 -6 0 -8
4 -12 9 -9 5 3 11 0 13 -7 7 -17 -16 -69 -26 -60 -5 5 -3 -2 3 -14 13 -25 24
-31 15 -9 -3 8 0 17 5 21 6 3 9 11 6 16 -4 5 -1 9 4 9 14 0 14 -17 1 -25 -11
-7 -2 -35 12 -35 5 0 6 6 2 13 -5 8 -3 8 9 -2 9 -7 14 -18 11 -25 -3 -6 1 -3
9 7 13 16 15 16 21 2 3 -10 11 -13 18 -9 10 6 11 4 1 -7 -17 -17 -17 -43 0
-33 8 5 8 3 -2 -9 -7 -9 -18 -14 -24 -10 -6 4 -8 0 -4 -9 7 -21 -3 -31 -18
-18 -9 8 -12 3 -11 -19 1 -16 5 -33 10 -38 5 -4 6 -3 2 5 -4 6 -3 12 2 12 6 0
13 -7 16 -16 5 -12 10 -14 20 -5 7 6 16 8 20 4 4 -4 11 -1 16 7 8 12 10 12 10
1 0 -11 3 -11 17 0 11 10 14 10 9 1 -4 -6 -2 -12 4 -12 6 0 13 7 16 15 4 8 10
15 15 15 4 0 5 -8 2 -17 -6 -17 -6 -17 10 -1 19 18 23 33 7 23 -5 -3 -15 7
-21 22 -6 15 -15 36 -20 45 -7 14 -5 16 8 11 10 -4 14 -2 9 5 -4 7 1 10 13 7
15 -3 18 0 14 13 -6 15 -5 15 11 3 9 -8 16 -10 15 -5 -1 5 -1 15 0 23 1 11 4
11 18 0 9 -8 14 -9 10 -2 -8 13 20 46 34 38 5 -4 6 1 2 11 -5 13 -2 15 18 10
l24 -7 -25 15 c-21 13 -22 15 -6 16 15 0 16 3 6 15 -11 13 -10 14 2 10 11 -5
15 0 14 17 0 13 -5 26 -11 30 -6 5 -6 8 1 8 6 0 11 6 11 14 0 8 -6 12 -14 9
-11 -4 -11 0 -3 22 14 36 13 42 -4 19 -8 -10 -18 -16 -22 -11 -4 4 -2 7 4 7 7
0 12 5 12 11 0 5 -6 7 -12 3 -10 -6 -10 -4 0 7 14 16 16 33 2 24 -18 -11 -10
4 18 34 15 16 34 38 42 48 8 11 11 12 5 4 -6 -11 -2 -10 13 3 23 20 30 32 12
21 -5 -3 -10 -1 -10 4 0 6 5 11 11 11 5 0 7 5 3 12 -5 7 -2 9 9 5 12 -4 15 -1
12 14 -2 11 0 17 6 14 5 -4 9 -1 9 5 0 6 5 8 13 4 9 -6 9 -5 -1 8 -10 12 -10
17 1 27 8 6 18 7 22 3 5 -4 5 1 2 10 -8 23 15 41 32 25 11 -10 11 -8 1 12 -8
15 -8 21 -1 17 6 -4 11 -3 11 3 0 6 8 7 18 4 15 -6 15 -5 3 10 -11 13 -11 17
-1 17 8 0 10 3 7 7 -9 8 22 43 38 43 7 0 16 7 19 16 9 22 8 26 -5 19 -6 -4 -5
2 2 13 7 12 17 18 21 16 4 -3 8 0 8 6 0 6 4 9 9 5 5 -3 13 0 17 6 4 8 3 9 -4
5 -7 -4 -12 -3 -12 3 0 6 9 15 21 21 13 7 18 17 15 27 -5 11 -2 13 10 9 12 -4
15 -2 11 9 -4 8 -1 18 6 22 19 12 47 14 47 4 0 -6 -9 -8 -20 -6 -11 2 -18 0
-15 -5 6 -9 24 -8 40 2 6 4 11 -2 11 -12 0 -10 -3 -17 -7 -15 -8 6 -3 -40 6
-55 6 -9 2 -9 -14 -1 -17 9 -20 9 -15 -3 4 -11 0 -14 -15 -11 -11 2 -24 -1
-27 -7 -5 -7 -2 -8 7 -4 8 4 5 1 -5 -8 -10 -8 -23 -13 -28 -10 -5 3 -7 0 -6
-7 2 -7 -2 -13 -9 -14 -6 0 -15 -4 -20 -9 -4 -5 -3 -6 4 -2 6 3 15 1 19 -5 4
-7 3 -9 -4 -6 -5 4 -22 -6 -35 -23 -14 -16 -31 -30 -37 -30 -7 0 -9 -7 -6 -16
3 -8 2 -12 -4 -9 -6 3 -13 -1 -16 -9 -3 -9 -10 -13 -15 -10 -5 3 -9 1 -9 -5 0
-5 6 -12 13 -14 10 -4 10 -6 0 -6 -7 -1 -13 -9 -13 -18 0 -15 -2 -16 -10 -3
-8 12 -10 9 -11 -12 -2 -41 -3 -46 -13 -55 -5 -5 -6 -2 -1 6 6 10 4 12 -4 7
-9 -6 -9 -11 0 -22 9 -11 9 -14 0 -14 -7 0 -9 -5 -6 -10 3 -5 1 -10 -6 -10 -8
0 -7 -5 2 -17 10 -11 10 -14 2 -9 -7 4 -13 2 -13 -3 0 -6 5 -11 12 -11 6 0 0
-10 -13 -22 -15 -13 -18 -19 -7 -15 24 8 28 -1 12 -31 -12 -23 -11 -30 2 -50
15 -23 15 -24 -8 -17 -15 4 -18 3 -10 -3 7 -5 10 -17 6 -28 -6 -18 -6 -18 9 1
14 18 15 18 12 -12 -1 -17 -5 -36 -9 -42 -4 -6 0 -14 9 -17 11 -5 13 -10 5
-19 -14 -16 0 -28 17 -13 11 9 12 7 7 -7 -6 -14 -4 -16 6 -10 10 6 12 4 7 -8
-3 -9 1 -23 9 -32 12 -11 12 -15 2 -15 -8 0 -7 -4 5 -11 9 -5 17 -17 17 -25 0
-8 4 -13 9 -10 5 3 12 -1 15 -10 4 -10 2 -13 -6 -8 -7 4 -8 3 -4 -4 4 -7 12
-12 17 -12 6 0 17 -7 26 -15 8 -8 19 -12 25 -9 5 4 5 -4 -2 -16 -7 -12 -8 -20
-2 -16 5 3 15 -1 22 -9 7 -8 21 -15 31 -15 11 0 19 -6 19 -14 0 -8 7 -17 16
-20 8 -3 12 -11 8 -17 -4 -8 -3 -9 5 -5 6 4 9 11 6 16 -3 4 4 6 15 3 11 -3 17
-9 14 -14 -7 -13 10 -11 23 2 7 7 12 6 17 -6 3 -9 2 -14 -2 -11 -4 2 -14 1
-22 -4 -19 -12 -17 -12 192 -15 162 -3 167 -3 158 16 -8 15 -7 17 4 13 8 -3
17 -13 20 -22 3 -10 4 -5 2 9 -1 16 2 26 10 26 7 0 10 -5 7 -11 -4 -5 7 0 24
12 17 12 35 22 40 22 5 0 15 9 23 20 10 14 16 16 22 7 6 -9 8 -9 8 1 0 7 4 10
10 7 6 -4 7 1 3 11 -5 13 -3 15 7 9 10 -6 12 -4 7 8 -4 11 -1 15 13 12 14 -3
18 1 15 16 -2 10 1 22 7 25 7 4 8 2 4 -4 -4 -7 -2 -12 3 -12 10 0 15 14 12 33
-1 5 9 6 21 2 13 -3 18 -3 13 2 -15 11 -13 33 5 46 8 7 17 21 18 32 2 11 9 23
14 26 6 4 11 19 11 33 -1 24 1 25 13 9 11 -15 13 11 13 165 -1 166 -2 182 -17
170 -13 -11 -15 -10 -9 4 6 16 -3 23 -25 19 -4 0 -3 11 3 26 6 15 7 25 4 21
-9 -9 -45 24 -38 35 3 5 -5 15 -17 24 -12 8 -19 21 -16 28 2 7 -9 25 -26 41
-25 21 -30 23 -24 8 6 -16 4 -16 -13 3 -12 12 -21 28 -21 35 0 9 -3 9 -10 -2
-8 -12 -10 -11 -10 7 0 15 -5 20 -18 16 -11 -2 -29 6 -44 22 -15 14 -39 28
-54 31 -15 3 -31 7 -35 10 -4 2 -10 0 -14 -5 -3 -6 -12 -8 -20 -5 -8 4 -12 11
-8 18 4 6 0 6 -9 -2 -9 -7 -19 -9 -22 -4 -3 5 -15 12 -26 15 -11 3 -18 1 -15
-3 3 -5 1 -11 -5 -15 -5 -3 -10 1 -10 9 0 18 -16 21 -25 6 -4 -6 -10 -8 -15
-5 -5 3 -21 -2 -35 -11 -14 -9 -25 -12 -25 -6 0 6 8 13 18 15 9 2 3 4 -15 3
-26 -1 -29 -3 -20 -16 7 -8 0 -5 -15 5 -22 17 -24 21 -10 27 15 6 15 7 0 7
-10 1 -18 8 -18 17 0 9 5 12 12 8 7 -4 8 -3 4 5 -4 6 -12 9 -18 5 -5 -3 -9 2
-8 12 4 31 1 37 -12 26 -10 -8 -13 -4 -13 14 0 16 5 22 13 19 7 -3 10 0 7 5
-3 6 -14 10 -23 10 -15 0 -15 2 -2 10 13 8 13 10 -2 10 -12 0 -15 5 -11 16 5
13 8 13 15 2 8 -10 9 -10 5 2 -2 9 -14 14 -28 13 -13 -1 -18 1 -11 3 6 3 9 11
6 16 -4 7 -2 8 4 4 8 -5 10 -2 6 8 -3 9 -14 16 -23 17 -12 0 -12 2 4 9 11 5
14 9 8 9 -7 1 -13 8 -13 17 0 9 -5 13 -12 9 -7 -4 -5 0 5 8 14 11 15 16 5 20
-11 4 -11 6 0 6 7 1 10 6 6 13 -5 8 -2 9 9 5 10 -4 16 -2 14 5 -1 6 4 13 12
16 9 3 11 0 7 -9 -4 -8 2 -3 14 11 18 20 21 21 16 6 -7 -20 -7 -20 15 0 14 11
19 13 14 4 -8 -13 -6 -13 8 -1 9 7 14 18 10 24 -3 6 -1 7 5 3 6 -4 8 -14 5
-23 -5 -13 -3 -14 13 -5 15 9 21 7 32 -11 11 -18 12 -19 7 -3 -6 20 -6 20 17
1 13 -11 24 -20 26 -21 2 -1 -4 -4 -13 -8 -11 -4 -14 -2 -9 6 4 7 3 8 -4 4 -8
-5 -8 -15 -1 -32 8 -22 7 -25 -6 -21 -8 4 -14 3 -13 -1 1 -4 -2 -18 -6 -30 -6
-17 -13 -22 -27 -19 -10 3 -22 0 -26 -5 -4 -7 -1 -8 7 -3 9 5 11 4 6 -3 -4 -7
-15 -12 -24 -12 -15 0 -15 -2 -2 -10 9 -6 10 -10 3 -10 -6 0 -11 -9 -10 -19 1
-16 4 -18 22 -9 18 10 19 10 6 -5 -12 -16 -9 -19 15 -16 4 0 10 -4 13 -9 4 -7
14 -5 26 5 20 15 20 15 -2 8 -13 -3 -23 -3 -23 2 0 8 23 13 67 16 10 0 10 4 1
14 -8 11 -7 12 6 7 12 -5 19 2 27 25 10 29 19 35 44 32 6 -1 1 6 -9 14 -11 8
-15 15 -9 15 6 0 14 7 17 16 3 8 2 12 -4 9 -5 -3 -6 9 -3 30 4 23 2 35 -6 35
-6 0 -11 7 -11 16 0 20 -21 41 -46 46 -12 2 -18 10 -16 23 3 16 2 17 -12 6
-14 -12 -16 -12 -11 1 5 12 -6 15 -65 14 -38 0 -70 -4 -70 -9 0 -4 4 -6 9 -2
5 3 13 1 16 -5 4 -6 3 -10 -2 -9 -22 4 -54 -2 -49 -9 3 -5 -1 -9 -9 -9 -8 0
-12 3 -10 7 2 4 -2 7 -9 7 -8 0 -12 -6 -9 -14 4 -9 0 -11 -13 -6 -9 3 -15 2
-12 -3 3 -5 -1 -15 -9 -23 -13 -12 -15 -11 -9 10 5 19 3 18 -7 -4 -8 -16 -20
-33 -28 -38 -18 -11 -20 -49 -3 -67 8 -7 14 -18 14 -25 0 -6 -7 -2 -16 9 -14
18 -15 18 -4 -3 6 -13 14 -23 18 -23 4 0 8 -13 8 -29 1 -24 -2 -29 -17 -26
-10 2 -21 0 -24 -6 -9 -14 -27 -11 -19 4 6 10 4 10 -7 0 -7 -7 -17 -13 -22
-13 -4 0 -5 6 -1 13 6 10 4 10 -7 0 -16 -15 -33 -17 -24 -3 3 6 -1 7 -9 4 -9
-3 -13 -11 -10 -18 3 -6 0 -4 -8 4 -18 20 -46 27 -30 7 9 -11 8 -13 -8 -12
-11 1 -23 5 -27 10 -5 4 -2 5 6 0 10 -6 12 -4 7 4 -6 9 -11 9 -22 0 -8 -6 -14
-7 -14 -2 0 5 -7 10 -15 10 -10 0 -12 -4 -5 -12 8 -9 4 -11 -15 -7 -15 2 -22
9 -18 16 3 6 0 6 -8 -1 -7 -7 -17 -13 -22 -13 -4 0 -5 6 -1 13 6 9 5 9 -8 0
-8 -7 -18 -10 -22 -6 -9 9 -46 11 -41 2 3 -4 -2 -9 -10 -13 -8 -3 -17 -1 -20
4 -4 6 -11 10 -16 10 -6 0 -8 -4 -5 -8 3 -5 -1 -9 -8 -9 -8 0 -12 6 -10 12 3
6 -2 12 -10 12 -9 0 -12 -6 -8 -16 4 -12 0 -11 -18 4 -13 11 -20 14 -16 8 4
-7 4 -13 -1 -14 -4 0 -16 -2 -26 -4 -9 -2 -15 1 -11 6 3 5 1 9 -5 9 -5 0 -13
-5 -17 -12 -5 -7 -11 -5 -21 7 -7 11 -13 14 -13 9 0 -6 -7 -11 -15 -11 -8 0
-15 3 -15 7 0 4 -7 7 -15 7 -10 0 -12 -4 -5 -12 8 -9 4 -11 -15 -7 -14 2 -22
9 -19 14 3 5 -4 4 -15 -4 -18 -11 -23 -11 -31 2 -8 13 -13 9 -12 -10 0 -3 -15
-5 -33 -5 -18 0 -31 4 -28 8 6 10 -17 38 -27 32 -4 -3 -10 4 -13 16 -5 18 -3
18 11 7 12 -9 11 -5 -3 12 -11 14 -24 28 -30 32 -6 5 -5 8 3 8 6 0 12 5 12 11
0 5 -5 7 -12 3 -7 -5 -8 -3 -4 5 5 7 14 10 21 7 9 -3 12 2 10 14 -2 12 1 17
10 14 7 -3 16 0 20 5 3 6 12 8 18 4 9 -5 8 -2 0 8 -10 13 -10 15 5 14 9 0 24
-5 31 -10 9 -5 19 -2 28 10 12 17 13 17 13 2 0 -22 6 -21 37 3 14 11 35 20 47
20 20 0 20 0 -2 16 -17 12 -21 21 -16 37 6 20 5 21 -11 7 -13 -10 -16 -11 -11
-2 6 11 -36 13 -225 11 -187 -1 -230 -4 -216 -14z m1352 -5 c3 -5 1 -10 -4
-10 -6 0 -11 5 -11 10 0 6 2 10 4 10 3 0 8 -4 11 -10z m-595 -270 c0 -5 -5
-10 -11 -10 -5 0 -7 5 -4 10 3 6 8 10 11 10 2 0 4 -4 4 -10z m335 0 c3 -5 1
-10 -4 -10 -6 0 -11 5 -11 10 0 6 2 10 4 10 3 0 8 -4 11 -10z m-733 -74 c6 4
8 2 4 -4 -3 -6 -1 -14 5 -18 7 -4 9 -3 6 3 -4 6 -1 15 6 20 18 14 56 10 67 -7
8 -12 10 -12 11 5 0 11 3 14 6 7 4 -10 8 -10 19 -1 8 7 14 7 14 1 0 -5 7 -13
16 -16 15 -6 15 -4 3 10 -13 16 -12 16 9 5 17 -9 22 -9 23 1 0 10 2 10 6 1 2
-7 9 -13 14 -13 6 0 8 3 6 8 -3 4 8 7 24 7 22 1 28 -3 24 -13 -4 -12 -3 -13
10 -2 8 7 15 9 15 5 0 -4 8 -1 17 6 9 8 14 9 10 3 -4 -7 0 -14 8 -17 10 -4 12
-1 8 11 -6 14 -4 15 9 5 8 -7 17 -10 21 -7 3 3 16 0 29 -7 20 -10 21 -10 11 2
-9 12 -5 14 24 15 23 1 30 -1 22 -7 -8 -5 -9 -9 -3 -9 5 0 15 5 22 12 9 9 12
8 12 -7 0 -18 0 -18 16 1 15 18 15 18 10 0 -6 -16 -4 -17 10 -5 18 15 47 22
39 9 -3 -4 2 -11 11 -14 8 -3 12 -2 9 3 -3 5 -1 12 5 16 5 3 10 1 10 -6 0 -9
3 -9 14 0 11 9 16 9 21 0 6 -8 10 -7 16 2 7 11 9 11 9 -1 0 -13 1 -13 10 0 9
13 10 13 10 0 0 -13 1 -13 10 0 8 13 11 13 22 1 11 -11 11 -13 -1 -6 -10 6
-12 4 -7 -4 5 -7 14 -10 21 -7 14 5 14 -18 0 -31 -4 -4 -5 -2 0 6 6 10 4 12
-4 7 -7 -5 -10 -14 -7 -22 3 -8 -1 -14 -10 -14 -11 0 -14 -5 -10 -16 4 -12 2
-15 -9 -10 -10 3 -15 -1 -15 -13 0 -11 -13 -33 -29 -50 -15 -16 -26 -33 -23
-36 3 -3 -2 -5 -11 -5 -10 0 -17 -5 -17 -11 0 -5 5 -7 12 -3 7 4 8 3 4 -4 -4
-7 -14 -12 -22 -12 -8 0 -12 -4 -9 -10 3 -5 1 -10 -5 -10 -6 0 -8 -5 -4 -12 5
-8 2 -9 -11 -4 -15 5 -16 4 -6 -8 11 -13 9 -15 -9 -11 -18 3 -20 2 -10 -10 8
-10 8 -15 -1 -21 -8 -5 -9 -3 -4 6 5 9 4 11 -4 6 -6 -4 -10 -15 -9 -24 2 -10
-3 -17 -13 -16 -9 1 -16 -6 -15 -15 0 -9 -4 -15 -11 -14 -8 2 -10 -4 -6 -14 4
-11 3 -14 -5 -9 -7 4 -13 1 -13 -8 -3 -37 -5 -41 -22 -38 -9 2 -17 -1 -16 -5
1 -4 1 -17 0 -27 -1 -20 -1 -20 -16 0 -14 18 -14 18 -8 -3 3 -14 1 -23 -6 -23
-10 0 -15 17 -14 48 1 10 -3 9 -16 -2 -20 -19 -31 -20 -31 -5 0 5 6 7 13 3 8
-6 8 -3 -2 9 -10 13 -17 14 -34 5 -16 -8 -22 -8 -25 1 -2 6 -9 11 -15 11 -8 0
-8 -3 0 -11 14 -14 -44 -80 -64 -72 -12 5 -12 7 -1 14 9 6 10 9 1 9 -7 0 -10
7 -6 17 4 10 2 14 -4 10 -13 -8 -26 20 -17 35 4 6 -2 8 -17 4 -13 -3 -18 -3
-11 0 6 3 9 11 6 16 -4 7 -2 8 4 4 7 -4 12 -2 12 3 0 10 -14 15 -32 12 -4 0
-5 6 -1 15 3 9 0 20 -8 25 -12 7 -12 9 1 9 9 1 6 6 -10 16 -14 8 -17 13 -8 10
10 -3 20 0 24 7 4 7 4 9 -1 5 -4 -4 -14 0 -22 10 -8 9 -11 11 -7 3 4 -9 3 -12
-4 -7 -6 4 -9 13 -6 20 3 8 0 17 -6 21 -6 4 -8 15 -5 25 3 10 0 22 -6 26 -8 5
-9 3 -4 -6 6 -9 4 -11 -4 -5 -9 5 -10 10 -2 18 6 6 11 16 11 22 0 5 -5 3 -10
-5 -7 -11 -10 -11 -10 -2 0 7 -5 10 -11 6 -8 -4 -8 0 0 15 11 20 8 26 -13 22
-5 -1 -4 5 4 13 10 13 10 16 -3 16 -11 0 -14 6 -11 15 4 8 1 21 -5 29 -6 7 -8
15 -5 18 3 3 0 9 -7 14 -8 5 -10 3 -4 -7 8 -12 6 -12 -8 -1 -13 11 -14 17 -4
33 7 11 13 15 15 9 2 -6 9 -7 14 -4z m-162 -10 c0 -2 -7 -7 -16 -10 -8 -3 -12
-2 -9 4 6 10 25 14 25 6z m64 -52 c9 -3 13 -10 10 -15 -3 -5 3 -9 13 -10 16 0
16 -1 -2 -9 l-20 -9 20 0 c17 -1 17 -3 5 -11 -11 -7 -11 -10 -2 -10 7 0 10 -4
7 -10 -4 -6 1 -7 11 -3 14 5 15 3 6 -14 -9 -17 -7 -24 13 -43 14 -13 21 -28
18 -38 -5 -11 -3 -13 8 -7 11 6 12 5 2 -5 -10 -11 -9 -16 5 -27 9 -8 11 -12 5
-8 -9 4 -11 1 -7 -9 3 -9 10 -13 15 -10 5 3 6 -2 3 -10 -3 -8 3 -22 14 -32 12
-9 18 -24 14 -32 -4 -11 -2 -13 9 -7 11 7 11 5 -1 -10 -8 -10 -10 -16 -4 -12
7 4 15 0 18 -9 4 -10 2 -13 -7 -9 -6 4 -4 0 5 -8 12 -9 14 -17 7 -24 -8 -8 -4
-15 11 -26 15 -11 18 -16 8 -20 -9 -4 -8 -6 4 -6 11 -1 15 -7 11 -21 -3 -11 0
-20 6 -20 6 0 11 -5 11 -11 0 -5 -4 -8 -9 -4 -5 3 -13 0 -17 -6 -5 -8 -3 -9 6
-4 10 6 12 4 7 -8 -4 -10 0 -20 11 -26 9 -6 12 -11 7 -11 -6 0 -22 8 -35 17
-14 9 -22 13 -18 8 4 -4 3 -14 -3 -21 -8 -9 -7 -18 1 -31 10 -16 10 -16 5 3
-4 14 -1 21 10 21 18 0 19 -11 3 -36 -9 -15 -17 -17 -34 -11 -12 5 -24 7 -26
4 -3 -2 -5 3 -5 11 0 11 4 12 14 3 7 -6 16 -8 20 -4 3 3 1 6 -6 6 -7 0 -11 7
-8 14 4 11 1 13 -11 10 -11 -4 -13 -3 -6 3 6 4 10 16 9 25 -2 12 2 15 13 10
14 -5 15 -4 2 10 -8 9 -19 13 -25 10 -5 -3 -3 3 5 13 12 15 12 17 1 10 -11 -6
-13 -2 -8 23 5 25 3 32 -9 32 -14 0 -14 3 -4 15 11 13 10 14 -3 9 -12 -4 -14
-1 -10 17 4 15 0 26 -12 35 -11 8 -16 21 -12 34 4 17 3 19 -8 10 -10 -8 -15
-8 -21 1 -4 8 -3 9 4 5 21 -13 13 5 -10 25 -20 16 -21 20 -8 29 8 5 10 10 4
10 -5 0 -16 -6 -23 -12 -10 -11 -11 -10 -6 2 3 10 -6 24 -25 39 -21 15 -29 28
-26 38 5 13 4 14 -9 3 -13 -11 -14 -10 -8 5 5 14 3 17 -10 12 -9 -3 -19 -1
-23 5 -4 7 -3 8 5 4 8 -5 10 0 7 18 -3 14 2 30 10 37 7 6 11 16 7 23 -4 6 0 5
9 -2 14 -11 16 -10 11 7 -3 13 -1 21 6 21 7 0 9 -5 5 -12 -5 -7 -3 -8 5 -3 9
5 9 11 3 17 -11 11 -5 38 8 38 5 0 15 -3 24 -6z m96 -14 c0 -5 -5 -10 -11 -10
-5 0 -7 5 -4 10 3 6 8 10 11 10 2 0 4 -4 4 -10z m-504 -150 c8 0 14 6 15 13 0
9 2 9 6 -1 2 -6 10 -9 16 -5 12 8 65 10 65 3 -2 -28 3 -32 18 -14 8 10 12 13
8 5 -5 -10 -3 -13 7 -9 8 3 24 -1 34 -9 19 -14 19 -15 -5 -9 l-25 7 25 -15
c14 -9 20 -15 14 -16 -7 0 -14 -9 -17 -21 -4 -14 -10 -18 -19 -13 -11 6 -11 5
0 -8 10 -13 9 -18 -5 -29 -14 -12 -16 -12 -8 0 5 10 4 12 -4 7 -9 -6 -9 -11 1
-24 11 -13 10 -15 -4 -9 -13 4 -15 2 -11 -10 4 -11 2 -14 -5 -9 -7 4 -12 2
-12 -3 0 -6 6 -11 13 -11 8 0 7 -3 -3 -9 -8 -6 -17 -8 -21 -5 -4 2 -11 -1 -15
-7 -4 -8 -3 -9 4 -5 7 4 12 3 12 -2 0 -6 -6 -12 -13 -15 -8 -3 -13 -18 -12
-34 1 -18 -3 -30 -11 -30 -7 0 -10 5 -7 10 3 6 1 7 -5 3 -7 -4 -12 -14 -12
-22 0 -9 -5 -12 -12 -8 -8 5 -9 2 -5 -9 3 -9 3 -16 -1 -15 -16 5 -50 -26 -44
-40 3 -10 0 -13 -9 -10 -8 3 -13 11 -11 17 1 7 -2 10 -8 6 -7 -4 -8 -11 -1
-18 5 -7 11 -21 13 -32 1 -11 11 -26 21 -33 9 -7 17 -19 17 -25 0 -7 -7 -4
-14 6 -7 9 -17 17 -21 17 -5 0 -1 -8 8 -18 10 -10 27 -18 40 -16 12 1 26 3 30
3 5 1 5 7 1 14 -5 9 -3 9 7 -1 11 -11 12 -14 1 -21 -11 -7 -10 -10 3 -14 9 -4
14 -3 11 1 -2 4 6 12 18 18 17 8 23 7 23 -2 0 -7 -4 -11 -8 -8 -4 2 -10 1 -13
-4 -2 -4 4 -9 15 -9 10 -1 19 5 19 13 0 8 4 14 10 14 5 0 7 -7 4 -15 -10 -24
12 -17 23 7 6 15 12 18 17 10 4 -7 2 -12 -3 -12 -6 0 -11 -5 -11 -10 0 -6 11
-8 25 -6 15 3 25 0 26 -7 0 -9 2 -8 6 1 2 6 9 10 13 7 5 -3 11 -1 14 4 3 5 -7
7 -23 6 -21 -2 -28 1 -24 11 6 15 16 18 27 7 11 -12 80 -10 89 2 4 6 7 2 5 -9
-2 -10 3 -21 10 -23 8 -3 10 2 6 14 -5 16 -4 16 7 -2 12 -19 12 -19 20 0 7 20
8 20 8 0 1 -17 3 -18 12 -5 9 13 10 12 5 -2 -6 -21 5 -23 23 -5 7 6 12 8 11 2
-2 -5 -1 -12 0 -15 7 -19 7 -39 -1 -34 -5 3 -6 10 -3 16 4 6 3 8 -3 5 -6 -4
-9 -18 -8 -32 2 -14 -1 -23 -6 -19 -8 5 -13 -10 -10 -29 1 -5 -3 -6 -8 -3 -5
3 -12 -1 -15 -10 -5 -12 -2 -15 11 -10 10 4 5 -4 -11 -18 -16 -14 -34 -23 -40
-19 -6 4 -5 0 2 -9 11 -14 9 -19 -15 -36 -15 -10 -34 -17 -41 -15 -8 3 -12 -1
-10 -12 2 -10 -3 -20 -9 -22 -7 -3 -13 1 -13 8 0 8 -7 3 -16 -9 -12 -17 -19
-20 -29 -12 -10 8 -15 8 -21 -1 -5 -8 -3 -10 7 -4 8 5 11 4 6 -1 -5 -5 -13
-10 -18 -10 -5 -1 -14 -2 -20 -3 -5 0 -7 -7 -3 -14 5 -8 2 -8 -9 2 -12 9 -17
10 -17 2 0 -7 -4 -9 -10 -6 -5 3 -18 1 -28 -4 -11 -6 -23 -7 -27 -3 -3 4 -21
8 -38 8 -18 1 -47 2 -64 3 -18 0 -33 6 -33 12 0 5 5 7 12 3 7 -5 8 -3 3 6 -6
10 -11 9 -22 -5 -12 -17 -13 -18 -13 -1 0 9 -5 14 -10 11 -6 -3 -10 -1 -10 5
0 6 -4 8 -10 5 -5 -3 -10 -1 -10 5 0 7 -8 9 -20 5 -11 -3 -20 -2 -20 3 0 5
-11 14 -24 22 -16 8 -22 18 -19 28 4 10 2 13 -5 8 -7 -4 -12 -2 -12 3 0 6 -5
11 -11 11 -5 0 -7 -5 -3 -12 4 -7 3 -8 -4 -4 -6 4 -8 14 -5 23 4 11 3 14 -5 9
-8 -4 -10 -2 -6 7 3 8 -5 23 -18 33 -13 11 -28 26 -33 34 -8 13 -7 13 11 0 10
-8 7 -1 -8 16 -16 16 -25 34 -20 40 4 5 5 8 3 7 -2 -2 -10 2 -17 8 -10 8 -11
16 -4 29 7 13 6 21 -2 26 -7 5 -8 3 -3 -6 5 -9 4 -11 -4 -6 -6 4 -9 11 -6 16
10 16 12 70 3 70 -5 0 -4 9 2 19 12 24 13 34 1 27 -5 -4 -8 2 -7 11 2 9 8 19
14 21 6 2 8 11 5 19 -5 13 -2 15 12 9 18 -7 18 -6 0 14 -18 20 -18 20 -1 14
15 -6 17 -3 12 14 -4 11 -2 23 4 27 6 3 7 11 4 17 -4 7 -2 8 4 4 7 -4 12 -2
12 4 0 6 5 8 13 4 9 -6 9 -5 0 8 -11 12 -9 17 12 26 14 6 25 17 25 24 0 9 -3
8 -11 -2 -9 -13 -10 -13 -6 0 2 8 12 14 22 12 11 -2 15 1 9 9 -5 9 -2 10 9 6
9 -3 16 -3 16 1 -1 4 -1 16 0 27 1 17 3 18 11 5 6 -10 10 -11 10 -2 0 6 7 12
15 12 7 0 19 8 24 18 9 15 12 15 21 2 8 -12 9 -9 6 12 -3 20 -1 25 10 21 8 -3
11 -9 8 -14 -10 -16 8 -9 23 9 8 9 11 11 7 3 -6 -11 -2 -11 16 2 17 12 28 13
42 6 10 -5 18 -6 17 -2 -3 16 3 28 8 16 2 -7 11 -13 19 -13z m1494 5 c-6 -7
-3 -11 9 -11 10 0 17 5 14 11 -2 7 3 12 11 12 8 0 13 -4 10 -9 -3 -5 11 -8 33
-6 27 2 37 -1 35 -10 -1 -8 2 -11 8 -7 6 3 8 10 5 15 -3 5 0 12 6 16 7 4 9 3
6 -3 -4 -6 0 -16 8 -23 13 -11 14 -10 9 3 -5 14 -2 14 25 4 20 -7 26 -14 18
-19 -7 -4 2 -5 18 -2 23 4 35 0 49 -15 10 -11 23 -18 29 -14 6 4 7 1 2 -7 -6
-10 -4 -12 9 -7 10 4 15 3 11 -3 -3 -6 -1 -10 5 -10 6 0 8 -5 4 -12 -5 -8 -2
-9 11 -4 15 5 16 4 6 -8 -11 -13 -9 -15 9 -11 19 4 20 2 8 -12 -7 -9 -8 -14
-3 -11 6 4 17 3 25 -3 13 -7 13 -9 0 -9 -9 -1 -6 -5 8 -10 12 -5 22 -17 22
-25 0 -9 5 -13 11 -9 8 5 8 1 0 -14 -8 -15 -8 -23 1 -28 7 -5 8 -3 3 6 -6 9
-4 11 4 5 7 -4 10 -16 8 -27 -4 -13 -1 -18 7 -15 7 3 13 -1 13 -9 0 -7 -4 -11
-8 -9 -10 7 -5 -22 6 -32 4 -4 5 -1 0 7 -7 12 -6 13 6 2 11 -11 12 -14 1 -21
-11 -6 -10 -10 4 -15 13 -5 14 -10 6 -18 -7 -7 -8 -17 -2 -29 7 -13 6 -22 -6
-33 -8 -9 -11 -16 -5 -16 6 0 11 -5 11 -11 0 -5 -6 -7 -12 -3 -9 5 -9 2 1 -9
7 -9 9 -17 4 -17 -5 0 -10 -11 -11 -26 -1 -17 2 -23 10 -18 6 4 8 3 4 -4 -3
-6 -15 -9 -25 -7 -10 2 -18 -3 -18 -10 0 -8 4 -12 8 -9 4 2 11 0 14 -6 4 -6 3
-10 -2 -9 -4 1 -15 1 -23 0 -13 -1 -13 -2 0 -11 12 -8 12 -10 -3 -16 -9 -3
-17 -10 -17 -16 0 -5 6 -6 13 -2 7 4 9 3 4 -2 -5 -5 -14 -9 -20 -9 -5 0 -12
-6 -15 -14 -3 -9 0 -11 9 -6 8 5 1 -6 -15 -23 -17 -18 -32 -32 -34 -32 -3 0 3
9 13 20 10 11 14 20 9 20 -13 0 -36 -39 -29 -50 3 -5 -4 -7 -15 -5 -14 3 -20
-1 -20 -13 0 -15 -2 -15 -10 -2 -8 12 -10 10 -10 -10 0 -14 -4 -20 -8 -15 -11
15 -41 15 -35 -1 3 -9 -2 -12 -16 -9 -13 2 -21 -1 -21 -9 0 -8 -10 -12 -25
-11 -16 2 -23 -1 -18 -8 4 -6 0 -8 -10 -4 -12 4 -17 1 -17 -11 -1 -16 -2 -15
-11 1 -10 17 -12 17 -36 2 -14 -10 -22 -12 -18 -5 5 8 1 11 -11 9 -11 -2 -25
0 -31 4 -8 5 -13 3 -13 -4 0 -10 -3 -10 -12 -1 -14 14 -32 16 -24 3 4 -5 -3
-7 -14 -4 -11 3 -20 9 -20 14 0 5 -5 9 -11 9 -5 0 -7 -5 -3 -12 4 -7 3 -8 -5
-4 -9 6 -9 11 -1 21 13 15 -5 16 -29 1 -9 -6 -12 -5 -8 0 3 6 -7 15 -23 22
-15 7 -30 22 -33 34 -5 19 -8 20 -23 7 -12 -9 -15 -10 -10 -1 4 7 2 12 -4 12
-6 0 -8 5 -5 10 4 6 3 10 -2 9 -27 -5 -35 1 -23 17 11 12 11 15 -1 12 -8 -2
-13 3 -11 12 3 12 1 13 -9 3 -7 -7 -18 -13 -24 -13 -5 0 -4 4 3 8 7 5 10 16 6
25 -3 9 -10 14 -15 11 -5 -3 -6 3 -2 12 5 13 3 15 -7 9 -9 -5 -11 -4 -6 4 10
15 -13 43 -27 34 -6 -3 -7 -1 -3 6 4 6 11 9 16 6 5 -3 12 0 16 6 4 7 3 9 -3 6
-6 -4 -16 -1 -22 7 -9 11 -8 17 3 29 14 13 14 16 -1 22 -15 5 -15 7 -3 15 12
8 11 10 -5 10 -11 0 -15 4 -10 8 16 11 13 45 -5 60 -13 10 -12 11 5 5 17 -6
18 -5 7 9 -10 13 -10 19 3 31 9 9 11 18 6 22 -6 3 -8 12 -5 20 4 8 11 12 18 8
6 -4 4 2 -4 12 -14 17 -13 18 4 12 16 -6 17 -5 6 8 -10 12 -9 15 6 16 11 0 14
3 7 6 -10 3 -10 7 0 18 7 7 15 11 19 9 4 -2 10 0 13 6 4 6 2 9 -3 8 -6 -2 -9
2 -9 7 1 6 6 9 10 7 5 -1 6 2 2 7 -3 6 4 15 15 21 11 6 20 15 20 21 0 6 -5 7
-12 3 -6 -4 -8 -3 -4 4 3 6 15 9 25 7 14 -3 19 1 16 14 -2 11 4 17 17 18 11 1
25 8 31 16 24 29 45 27 65 -8 15 -24 17 -36 9 -44 -8 -8 -7 -11 2 -11 10 0 11
-3 2 -14 -9 -11 -9 -16 0 -22 8 -4 9 -3 5 4 -5 8 -2 10 9 6 11 -5 13 -10 5
-19 -8 -9 -6 -14 6 -19 9 -4 14 -13 10 -21 -3 -8 -1 -15 4 -15 6 0 10 -5 10
-11 0 -5 -5 -7 -10 -4 -6 4 -5 -5 2 -19 6 -14 15 -26 20 -26 5 0 7 -13 4 -30
-2 -16 0 -32 4 -35 5 -3 7 3 5 15 -2 11 0 22 4 24 10 6 8 -40 -2 -50 -12 -12
-8 -26 6 -18 6 4 4 -2 -6 -13 -17 -19 -17 -21 5 -37 13 -8 19 -15 13 -13 -5 1
-10 -2 -10 -8 0 -5 8 -8 19 -7 12 3 16 0 11 -8 -5 -9 -1 -10 15 -5 15 5 20 4
16 -4 -5 -7 -1 -9 9 -5 8 4 22 18 31 33 l15 26 -7 -25 c-4 -14 -3 -22 1 -18 4
3 10 22 15 41 6 29 5 34 -7 30 -13 -5 -13 -2 -4 16 7 12 8 21 4 20 -4 -1 -15
-1 -23 0 -12 1 -13 3 -1 10 11 7 9 10 -9 16 -18 6 -20 9 -9 16 11 7 10 9 -3 9
-10 0 -18 3 -18 8 0 4 -3 18 -7 31 -5 18 -3 22 7 16 9 -5 11 -4 6 4 -5 8 -12
9 -20 2 -8 -7 -12 -5 -12 9 0 10 3 17 6 15 4 -2 7 2 7 10 0 8 -4 12 -9 9 -7
-5 -9 1 -8 21 1 3 -6 13 -15 21 -17 18 -19 30 -5 39 5 3 7 0 4 -8 -3 -8 -1
-17 4 -21 5 -3 8 5 7 17 -1 12 -6 22 -12 22 -5 0 -17 8 -27 18 -20 19 -8 24
14 5 8 -7 7 -4 -3 8 -9 11 -14 24 -10 27 3 4 1 7 -4 7 -9 0 -11 20 -3 40 1 3
2 8 2 11 -1 3 6 6 13 6 10 0 12 -4 5 -12z m440 -50 c7 -9 8 -15 2 -15 -5 0
-12 7 -16 15 -3 8 -4 15 -2 15 2 0 9 -7 16 -15z m-1657 -42 c-3 -8 3 -13 15
-13 12 0 24 -5 27 -10 4 -6 11 -7 17 -4 7 4 8 2 4 -5 -6 -9 -11 -9 -23 1 -15
12 -15 11 -3 -9 8 -12 16 -20 20 -18 6 4 30 -22 30 -32 0 -23 13 -43 28 -43
15 0 15 -2 2 -10 -12 -7 -12 -10 -1 -10 7 0 11 -6 7 -15 -3 -8 0 -14 6 -12 5
1 12 -6 13 -15 2 -10 0 -18 -5 -18 -13 0 -20 -29 -8 -36 7 -4 8 -3 4 4 -4 7
-3 12 2 12 5 0 8 -17 8 -37 -1 -21 3 -44 9 -52 9 -12 7 -12 -12 0 -15 9 -19
17 -13 23 15 15 12 24 -12 36 -22 10 -22 10 -4 -4 17 -14 17 -16 2 -31 -9 -9
-16 -21 -16 -26 0 -6 -7 -3 -16 5 -8 9 -19 14 -23 12 -4 -3 -23 -8 -42 -11
-23 -4 -29 -2 -19 4 8 5 18 7 22 5 4 -3 8 0 8 6 0 7 -8 9 -21 5 -34 -11 -53
-13 -64 -6 -5 3 -22 6 -38 7 -29 1 -50 13 -26 15 8 1 21 2 29 3 8 1 21 -3 28
-8 7 -5 12 -4 12 3 0 6 -5 11 -11 11 -5 0 -7 6 -3 13 5 8 2 7 -10 -2 -13 -11
-20 -11 -28 -3 -7 7 -17 12 -22 12 -6 0 -4 -5 4 -10 9 -6 10 -10 3 -10 -6 0
-15 5 -18 10 -4 6 -10 8 -14 6 -4 -3 -8 1 -8 9 0 18 14 20 19 3 3 -7 7 -3 10
9 5 18 2 21 -16 18 -20 -4 -21 -4 -2 10 14 11 16 15 5 15 -12 0 -12 2 0 9 8 5
10 14 5 22 -6 11 -5 12 7 2 12 -10 17 -8 29 10 12 20 12 21 -3 8 -25 -20 -21
-5 5 19 12 11 18 23 15 27 -4 3 -7 1 -7 -5 0 -7 -5 -12 -11 -12 -8 0 -8 4 1
15 6 8 17 13 22 12 6 -1 13 4 16 12 3 10 0 11 -9 5 -12 -7 -12 -5 0 9 7 9 10
17 5 17 -5 1 1 9 14 20 13 11 21 23 18 28 -2 4 6 8 19 8 15 0 21 -5 18 -13z
m-726 -126 c0 -8 -6 -14 -14 -14 -9 0 -10 4 -2 14 6 7 12 13 14 13 1 0 2 -6 2
-13z m1263 -2 c0 -2 -10 -9 -22 -15 -22 -11 -22 -10 -4 4 21 17 26 19 26 11z
m-1270 -29 c0 -3 -4 -8 -10 -11 -5 -3 -10 -1 -10 4 0 6 5 11 10 11 6 0 10 -2
10 -4z m1307 -22 c-3 -3 -12 -4 -19 -1 -8 3 -5 6 6 6 11 1 17 -2 13 -5z m-117
-44 c11 -8 7 -9 -14 -4 -22 5 -27 4 -21 -6 5 -9 4 -11 -4 -6 -13 9 -5 26 12
26 7 0 19 -5 27 -10z m415 -89 c3 -5 2 -12 -3 -15 -5 -3 -9 1 -9 9 0 17 3 19
12 6z m-797 -26 c-3 -3 -9 2 -12 12 -6 14 -5 15 5 6 7 -7 10 -15 7 -18z m47
15 c3 -5 1 -10 -4 -10 -6 0 -11 5 -11 10 0 6 2 10 4 10 3 0 8 -4 11 -10z
m-855 -149 c0 -6 -4 -12 -8 -15 -5 -3 -9 1 -9 9 0 8 4 15 9 15 4 0 8 -4 8 -9z
m161 -238 l24 -28 -30 25 c-16 14 -32 26 -34 28 -2 1 0 2 6 2 5 0 20 -12 34
-27z"/>
<path d="M1619 1533 c-13 -16 -12 -17 4 -4 9 7 17 15 17 17 0 8 -8 3 -21 -13z"/>
<path d="M1209 1226 c-1 -3 -2 -12 -3 -18 -1 -7 -6 -12 -12 -11 -5 1 -10 -7
-10 -18 0 -25 1 -24 26 10 12 18 16 32 10 36 -5 3 -11 4 -11 1z"/>
<path d="M866 1592 c-3 -5 1 -9 9 -9 8 0 15 4 15 9 0 4 -4 8 -9 8 -6 0 -12 -4
-15 -8z"/>
<path d="M940 1452 c0 -5 7 -9 15 -9 8 0 12 4 9 9 -3 4 -9 8 -15 8 -5 0 -9 -4
-9 -8z"/>
<path d="M1015 1299 c-4 -6 -5 -12 -2 -15 2 -3 7 2 10 11 7 17 1 20 -8 4z"/>
<path d="M453 1115 c0 -8 4 -12 9 -9 5 3 6 10 3 15 -9 13 -12 11 -12 -6z"/>
<path d="M737 950 c7 -9 10 -25 8 -35 -2 -11 -4 -22 -4 -25 -1 -3 -5 0 -9 7
-5 8 -13 9 -22 3 -13 -9 -13 -10 0 -11 8 0 26 -2 40 -5 14 -2 21 -1 15 3 -16
12 -16 31 0 37 9 3 12 0 8 -10 -3 -7 0 -14 7 -14 6 0 9 -4 6 -8 -3 -5 1 -9 9
-9 11 0 12 4 4 13 -6 7 -6 14 -1 18 6 3 12 -1 16 -9 3 -8 11 -15 18 -14 10 0
10 2 1 6 -22 8 -14 25 8 18 19 -6 20 -5 8 8 -14 15 -33 17 -45 4 -4 -3 -15 4
-25 16 -18 20 -18 20 -12 2 l6 -20 -24 20 c-13 11 -18 13 -12 5z"/>
<path d="M710 930 c-13 -8 -12 -10 3 -10 9 0 17 5 17 10 0 12 -1 12 -20 0z"/>
<path d="M850 890 c0 -5 5 -10 11 -10 5 0 7 5 4 10 -3 6 -8 10 -11 10 -2 0 -4
-4 -4 -10z"/>
<path d="M827 869 c7 -7 15 -10 18 -7 3 3 -2 9 -12 12 -14 6 -15 5 -6 -5z"/>
<path d="M769 739 l-24 -20 28 17 c15 9 27 18 27 20 0 8 -8 4 -31 -17z"/>
<path d="M260 727 c0 -3 12 -12 26 -22 15 -9 23 -12 20 -6 -7 11 -46 35 -46
28z"/>
<path d="M673 685 c0 -8 4 -12 9 -9 5 3 6 10 3 15 -9 13 -12 11 -12 -6z"/>
<path d="M530 639 c0 -5 5 -7 10 -4 6 3 10 8 10 11 0 2 -4 4 -10 4 -5 0 -10
-5 -10 -11z"/>
<path d="M2223 1397 c0 -8 6 -14 14 -14 9 0 10 4 2 14 -6 7 -12 13 -14 13 -1
0 -2 -6 -2 -13z"/>
<path d="M1870 1366 c0 -2 8 -10 18 -17 15 -13 16 -12 3 4 -13 16 -21 21 -21
13z"/>
<path d="M705 1320 c-3 -5 -2 -10 4 -10 5 0 13 5 16 10 3 6 2 10 -4 10 -5 0
-13 -4 -16 -10z"/>
<path d="M665 1110 c-3 -5 -1 -10 4 -10 6 0 11 5 11 10 0 6 -2 10 -4 10 -3 0
-8 -4 -11 -10z"/>
<path d="M711 1104 c0 -11 3 -14 6 -6 3 7 2 16 -1 19 -3 4 -6 -2 -5 -13z"/>
<path d="M755 1110 c-3 -5 -1 -10 4 -10 6 0 11 5 11 10 0 6 -2 10 -4 10 -3 0
-8 -4 -11 -10z"/>
<path d="M733 1093 c4 -6 1 -14 -5 -16 -10 -4 -10 -6 0 -6 7 -1 10 -6 6 -13
-4 -6 -3 -8 4 -5 12 8 10 32 -3 44 -4 4 -5 3 -2 -4z"/>
<path d="M1083 1943 c-7 -3 -13 -10 -13 -16 0 -8 3 -8 11 0 6 6 18 9 25 6 8
-3 14 -3 14 0 0 8 -24 14 -37 10z"/>
<path d="M1695 1879 c-4 -6 -5 -12 -2 -15 2 -3 7 2 10 11 7 17 1 20 -8 4z"/>
<path d="M666 1854 c-5 -14 -4 -15 8 -5 10 8 16 9 19 1 3 -6 4 -5 3 2 -4 19
-23 20 -30 2z"/>
<path d="M797 1805 c10 -13 22 -25 27 -25 5 0 -1 11 -14 25 -30 32 -36 32 -13
0z"/>
<path d="M1675 1450 c3 -5 8 -10 11 -10 2 0 4 5 4 10 0 6 -5 10 -11 10 -5 0
-7 -4 -4 -10z"/>
<path d="M1666 1404 c-3 -8 -10 -12 -16 -9 -13 8 -34 -14 -38 -40 -2 -18 -1
-18 11 3 7 12 15 20 18 17 3 -3 16 6 29 20 13 14 19 25 13 25 -6 0 -14 -7 -17
-16z"/>
<path d="M38 1303 c7 -3 16 -2 19 1 4 3 -2 6 -13 5 -11 0 -14 -3 -6 -6z"/>
<path d="M1545 1290 c-3 -5 -1 -10 4 -10 6 0 11 5 11 10 0 6 -2 10 -4 10 -3 0
-8 -4 -11 -10z"/>
<path d="M1516 1252 c-3 -5 1 -9 9 -9 8 0 12 4 9 9 -3 4 -7 8 -9 8 -2 0 -6 -4
-9 -8z"/>
<path d="M1520 1070 c-9 -6 -10 -10 -3 -10 6 0 15 5 18 10 8 12 4 12 -15 0z"/>
<path d="M2530 849 c0 -5 5 -7 10 -4 6 3 10 8 10 11 0 2 -4 4 -10 4 -5 0 -10
-5 -10 -11z"/>
<path d="M1030 835 c-7 -9 -11 -17 -9 -20 3 -2 10 5 17 15 14 24 10 26 -8 5z"/>
<path d="M2476 772 c-3 -5 1 -9 9 -9 8 0 12 4 9 9 -3 4 -7 8 -9 8 -2 0 -6 -4
-9 -8z"/>
<path d="M1260 691 c0 -6 4 -13 10 -16 6 -3 7 1 4 9 -7 18 -14 21 -14 7z"/>
<path d="M255 570 c-3 -5 -1 -10 4 -10 6 0 11 5 11 10 0 6 -2 10 -4 10 -3 0
-8 -4 -11 -10z"/>
</g>
</svg>
